<?xml version="1.0" encoding="UTF-8" standalone="no"?>
<svg
   height="200"
   viewBox="0 0 200 200"
   width="200"
   version="1.1"
   id="svg4"
   sodipodi:docname="preview.svg"
   inkscape:version="1.4 (e7c3feb, 2024-10-09)"
   xml:space="preserve"
   xmlns:inkscape="http://www.inkscape.org/namespaces/inkscape"
   xmlns:sodipodi="http://sodipodi.sourceforge.net/DTD/sodipodi-0.dtd"
   xmlns="http://www.w3.org/2000/svg"
   xmlns:svg="http://www.w3.org/2000/svg"><defs
     id="defs4" /><sodipodi:namedview
     pagecolor="#303030"
     showgrid="true"
     id="namedview1"
     bordercolor="#eeeeee"
     borderopacity="1"
     inkscape:showpageshadow="0"
     inkscape:pageopacity="0"
     inkscape:pagecheckerboard="0"
     inkscape:deskcolor="#505050"
     inkscape:zoom="2.8991378"
     inkscape:cx="103.99644"
     inkscape:cy="108.65299"
     inkscape:window-width="1920"
     inkscape:window-height="1023"
     inkscape:window-x="0"
     inkscape:window-y="0"
     inkscape:window-maximized="1"
     inkscape:current-layer="g3"><inkscape:grid
       id="grid5"
       units="px"
       spacingx="100"
       spacingy="100"
       color="#4772b3"
       opacity="0.2"
       visible="true"
       originx="0"
       originy="0" /></sodipodi:namedview><g
     fill="#fff"
     id="g4"
     style="fill:#545454;fill-opacity:1"><g
       enable-background="new"
       opacity="0.99"
       transform="matrix(-100,0,0,100,126400.01,29300)"
       id="g3"
       style="fill:#545454;fill-opacity:1"><path
         d="m 1263.2338,-292.09437 c -0.016,6.5e-4 -0.032,0.009 -0.039,0.0238 l -0.3775,0.66049 c -0.017,0.0314 0.011,0.0705 0.041,0.0706 h 0.7549 c 0.036,-5e-5 0.059,-0.0392 0.041,-0.0706 l -0.3774,-0.66049 c -0.011,-0.0153 -0.025,-0.0246 -0.044,-0.0238 z"
         opacity="1"
         id="path1"
         style="fill:#545454;fill-opacity:1;stroke-width:0.0943552" /><path
         d="m 1262.7643,-292.37743 c -0.078,0 -0.1416,0.0639 -0.1416,0.14153 0,0.0776 0.064,0.14153 0.1416,0.14153 0.078,0 0.1415,-0.0639 0.1415,-0.14153 0,-0.0777 -0.064,-0.14153 -0.1415,-0.14153 z"
         opacity="1"
         id="path2"
         style="fill:#545454;fill-opacity:1;stroke-width:0.0943552" /><path
         d="m 1263.5663,-292.66051 c 0.049,0 0.094,0.0443 0.094,0.0944 v 0.97671 l -0.094,-0.16511 v -0.8116 h -1.1322 v 1.13227 h 0.2924 c -0.011,0.0321 -0.011,0.0648 -4e-4,0.0944 h -0.292 c -0.05,0 -0.094,-0.0443 -0.094,-0.0944 v -1.13227 c 0,-0.0458 0.049,-0.0944 0.094,-0.0944 z"
         fill-rule="evenodd"
         opacity="1"
         id="path3"
         style="fill:#545454;fill-opacity:1;stroke-width:0.0943543;stroke-dasharray:none"
         sodipodi:nodetypes="cccccccccccccc" /></g></g></svg>
