<?xml version="1.0" encoding="UTF-8" standalone="no"?>
<svg
   height="1600"
   viewBox="0 0 1600 1600"
   width="1600"
   version="1.1"
   id="svg4"
   sodipodi:docname="preview.svg"
   inkscape:version="1.4 (e7c3feb, 2024-10-09)"
   xmlns:inkscape="http://www.inkscape.org/namespaces/inkscape"
   xmlns:sodipodi="http://sodipodi.sourceforge.net/DTD/sodipodi-0.dtd"
   xmlns="http://www.w3.org/2000/svg"
   xmlns:svg="http://www.w3.org/2000/svg">
  <defs
     id="defs4" />
  <sodipodi:namedview
     pagecolor="#303030"
     showgrid="true"
     id="namedview1"
     bordercolor="#eeeeee"
     borderopacity="1"
     inkscape:showpageshadow="0"
     inkscape:pageopacity="0"
     inkscape:pagecheckerboard="0"
     inkscape:deskcolor="#505050"
     inkscape:zoom="0.128125"
     inkscape:cx="97.560976"
     inkscape:cy="1779.5122"
     inkscape:window-width="1920"
     inkscape:window-height="1023"
     inkscape:window-x="0"
     inkscape:window-y="0"
     inkscape:window-maximized="1"
     inkscape:current-layer="g3">
    <inkscape:grid
       id="grid5"
       units="px"
       spacingx="100"
       spacingy="100"
       color="#4772b3"
       opacity="0.2"
       visible="true"
       originx="0"
       originy="0" />
  </sodipodi:namedview>
  <g
     fill="#fff"
     id="g4"
     style="fill:#545454;fill-opacity:1">
    <g
       enable-background="new"
       opacity=".99"
       transform="matrix(-100 0 0 100 126400.005 29300.00000000001)"
       id="g3"
       style="fill:#545454;fill-opacity:1">
      <path
         d="m1258.4766-286c-.1708.008-.3255.10335-.4102.25195l-4 7c-.1903.33312.05.74758.4336.74805h8c.3836-.00047.6239-.41493.4336-.74805l-4-7c-.093-.16311-.2694-.26042-.457-.25195z"
         opacity="1"
         id="path1"
         style="fill:#545454;fill-opacity:1" />
      <path
         d="m1253.5-289c-.8225 0-1.5.67749-1.5 1.5s.6775 1.5 1.5 1.5 1.5-.67749 1.5-1.5-.6775-1.5-1.5-1.5z"
         opacity="1"
         id="path2"
         style="fill:#545454;fill-opacity:1" />
      <path
         d="m 27.99995,11 c -0.510683,0 -1,0.468621 -1,1 l 5e-5,10.351562 1,-1.75 V 12 h 12 v 12 h -3.099609 c 0.122248,0.339531 0.117057,0.686553 0.0039,1 l 3.095659,0 c 0.524481,0 1,-0.468621 1,-1 l 0,-12 c 0,-0.485887 -0.509235,-1 -1,-1 z"
         fill-rule="evenodd"
         opacity="1"
         transform="matrix(-1,0,0,1,1290,-303)"
         id="path3"
         style="fill:#545454;fill-opacity:1;stroke-width:0.999987;stroke-dasharray:none"
         sodipodi:nodetypes="cccccccccccccc" />
    </g>
  </g>
</svg>
